<?xml version="1.0" encoding="UTF-8"?>
<svg id="Layer_1" data-name="Layer 1" xmlns="http://www.w3.org/2000/svg" viewBox="0 0 259.86 233.87">
  <defs>
    <style>
      .cls-1 {
        fill: #010101;
        fill-rule: evenodd;
        stroke-width: 0px;
      }
    </style>
  </defs>
  <g id="Page-1">
    <g id="Icon-Set">
      <path id="hamburger" class="cls-1" d="M246.86,103.94H12.99c-7.17,0-12.99,5.82-12.99,12.99s5.82,12.99,12.99,12.99h233.87c7.17,0,12.99-5.81,12.99-12.99s-5.82-12.99-12.99-12.99h0ZM246.86,207.89H12.99c-7.17,0-12.99,5.82-12.99,12.99s5.82,12.99,12.99,12.99h233.87c7.17,0,12.99-5.81,12.99-12.99s-5.82-12.99-12.99-12.99h0ZM12.99,25.99h233.87c7.17,0,12.99-5.81,12.99-12.99s-5.82-12.99-12.99-12.99H12.99C5.82,0,0,5.82,0,12.99s5.82,12.99,12.99,12.99h0Z"/>
    </g>
  </g>
</svg>